<svg xmlns="http://www.w3.org/2000/svg" xmlns:xlink="http://www.w3.org/1999/xlink" viewBox="0 0 500 500"><defs><clipPath id="freepik--clip-path--inject-6"><rect x="123.3" y="83.43" width="136.93" height="136.93" rx="7.1" style="fill:#FF571F;stroke:#263238;stroke-miterlimit:10"></rect></clipPath><clipPath id="freepik--clip-path-2--inject-6"><rect x="92.4" y="255.22" width="110.77" height="15.89" rx="2.09" style="fill:#FF571F;stroke:#263238;stroke-miterlimit:10"></rect></clipPath><clipPath id="freepik--clip-path-3--inject-6"><path d="M439.88,365.67l-15.11,88.71H325.49l18.4-86.69a31.27,31.27,0,0,1,30.34-24.77h46.44a19.34,19.34,0,0,1,13.91,5.85,13.43,13.43,0,0,1,1,1A19.4,19.4,0,0,1,439.88,365.67Z" style="fill:#263238;stroke:#263238;stroke-miterlimit:10"></path></clipPath><clipPath id="freepik--clip-path-4--inject-6"><path d="M378.42,454.38H298.56s-10.35-13-16.81-21.88l-.92-1.28a59.64,59.64,0,0,1-3.75-5.72,4.17,4.17,0,0,1-.32-.8c-.79-2.56-.34-7.17.55-11.93.27-1.48.59-3,.92-4.43,1.46-6.41,3.25-12,3.25-12s-2.21.13-5.77.27c-1.6.07-3.46.14-5.53.2-3.32.09-7.15.17-11.16.18l-4.73,0c-4.85-.06-9.78-.23-14.24-.59-1.45-.12-2.85-.25-4.18-.42a37.28,37.28,0,0,1-9.93-2.22c-1.33-.59-2.52-2-3.58-4.15a39.92,39.92,0,0,1-2.75-7.88A130,130,0,0,1,216.92,367c-.28-2.09-.53-4.24-.76-6.41-.4-3.72-.74-7.49-1-11.18q-.17-2.24-.3-4.41c-.22-3.45-.4-6.78-.54-9.85-.06-1.51-.12-3-.17-4.33-.17-4.56-.25-8.28-.3-10.62,0-1.73,0-2.7,0-2.7s12.57-2.69,16.9-14.39c0,0,.47,2,1.22,5.57.31,1.5.67,3.27,1.07,5.28.33,1.7.69,3.56,1.05,5.56.6,3.15,1.22,6.66,1.83,10.43.25,1.49.49,3,.74,4.59.44,2.89.88,5.89,1.29,9,.18,1.38.36,2.78.53,4.19.22,1.68.41,3.37.6,5.08s.36,3.31.52,5,.28,3.07.4,4.6c.07.86.14,1.71.2,2.57a21,21,0,0,1,3.27-.25,2.45,2.45,0,0,1,1.22.25c.79.58,1.34,3.92,1.34,3.92l1.09-.22,4-.8,7.79-1.5,4-.74c2-.37,4-.74,6.07-1.09l4-.69c2.86-.47,5.58-.9,8-1.22,1.51-.21,2.88-.38,4.06-.49l.63-.06a44.33,44.33,0,0,1,7.42.21c15.79,1.48,43.85,8.2,57.65,9,6,.36,9.75,10.74,12.65,24.06.78,3.58,1.5,7.38,2.2,11.25q.57,3.21,1.11,6.45c.29,1.71.57,3.4.86,5.1h0c.25,1.5.5,3,.76,4.46q.47,2.71.94,5.32c.28,1.55.56,3.07.86,4.55.42,2.15.85,4.2,1.31,6.14.35,1.49.71,2.91,1.08,4.24a43.37,43.37,0,0,0,2.58,7.18,12.8,12.8,0,0,0,2.22,3.35A5.32,5.32,0,0,0,378.42,454.38Z" style="fill:#FF571F;stroke:#263238;stroke-linecap:round;stroke-linejoin:round"></path></clipPath><clipPath id="freepik--clip-path-5--inject-6"><path d="M363.3,395.39l3.18-2.3s3.21,7.41,3.3,10.18a1.77,1.77,0,0,1-.08.7c-.35.92-1.76,5.14-3.09,9.12-.17.51-.34,1-.5,1.5-.83,2.51-1.57,4.73-1.89,5.68h0l-.05.15-.11.34s.15,1.57.34,4c.14,1.81.29,4.1.41,6.62h0c.08,1.43.13,2.93.18,4.46,0,.27,0,.55,0,.82,0,1.34,0,2.69,0,4,0,.75,0,1.48,0,2.2-.05,1.63-.13,3.19-.27,4.62-.31,3.17-.88,5.69-1.84,6.82H259.2s-9-6.11-9.5-10.85a24.52,24.52,0,0,1,0-7.12l1,0,3.8.21,5.57-1.23,3.94-.84c3.33-.7,7.14-1.5,10.8-2.22,1.35-.27,2.68-.52,3.95-.76l1.37-.26.75-.14c1.83-.33,3.48-.61,4.84-.81a25.39,25.39,0,0,1,3.19-.33l2.85,0,4.09,0h5.72l4.2,0L310,430c2.35-.05,4.61-.13,6.63-.25l1.65-.1h0c1.19-.09,2.25-.19,3.16-.31a11.31,11.31,0,0,0,2.7-.58,1.15,1.15,0,0,0,.49-.31,2.45,2.45,0,0,1,.34-.37c1.63-1.5,4.15.11,4.15.11l.42-1.56,1.32-4.91h0l.06-.22.9-3.32.33-.24.25-.19h0" style="fill:#FF571F;stroke:#263238;stroke-linecap:round;stroke-linejoin:round"></path></clipPath><clipPath id="freepik--clip-path-6--inject-6"><path d="M329,321.84s.4-24.55-16.28-31.91a31,31,0,0,1,13.56,4.12c7.45,4.12,11.57,14.83,9.82,31Z" style="fill:#FF571F;stroke:#263238;stroke-miterlimit:10"></path></clipPath><clipPath id="freepik--clip-path-7--inject-6"><path d="M338.67,334.49c-1.15,5.4-5.16,9.11-9,8.31s-5.95-5.84-4.8-11.23,5.15-9.11,8.95-8.3S339.81,329.1,338.67,334.49Z" style="fill:#FF571F;stroke:#263238;stroke-miterlimit:10"></path></clipPath><clipPath id="freepik--clip-path-8--inject-6"><path d="M149.88,440.45h0a.87.87,0,0,0-.67.41L141.4,453a.92.92,0,0,0,.78,1.43H201.9V440.45Z" style="fill:#FF571F;stroke:#263238;stroke-miterlimit:10"></path></clipPath><clipPath id="freepik--clip-path-9--inject-6"><path d="M206.11,454.38H194.18a.92.92,0,0,1-.78-1.43l7.8-12.08a.93.93,0,0,1,1.66.21L207,453.15A.94.94,0,0,1,206.11,454.38Z" style="fill:#FF571F;stroke:#263238;stroke-miterlimit:10"></path></clipPath><clipPath id="freepik--clip-path-10--inject-6"><path d="M111.87,426.33l-1,6-.22,1.28L107,454.2H50.17l-3.36-19.26-.22-1.25-1.28-7.36a1.72,1.72,0,0,1,1.69-2h63.19A1.71,1.71,0,0,1,111.87,426.33Z" style="fill:#263238"></path></clipPath></defs><g id="freepik--background-simple--inject-6"><path d="M67.93,167.09s-27.88,72,11.3,144.5S199.11,422.39,263.7,455.14s131.66,16.8,163.53-36.84-11.84-91.93-11.9-168.42,11.45-96.74-30-161.36-143.06-78.93-219.9-31S67.93,167.09,67.93,167.09Z" style="fill:#fff;opacity:0.7000000000000001"></path><path d="M438.86,205.45c-18.2-20.12-48.67-22.38-72.38-35.56-40.79-22.7-56.6-74.39-93.71-102.71-23.43-17.88-55.09-24.82-83.4-20.9-40.19,5.57-78,32.5-89.36,72a99.79,99.79,0,0,0-3.44,35.41c1.82,23.55,6.88,47.4,2.1,70.53-5.26,25.49-21.85,47-31.76,71.09-12.34,30-14,63.6-8.76,95.58,3.6,21.82,10.78,43.84,25.76,60.11,1.13,1.23,2.31,2.4,3.51,3.55H251c10.27-13.09,18-28.58,27.07-42.33,22.73-34.58,59.1-59.24,98.83-70.81,17.8-5.18,37.09-8.26,51.39-20.06,14.71-12.13,21.47-31.49,24.4-50.34C456.26,248.16,454.35,222.58,438.86,205.45Z" style="fill:#FF571F"></path><path d="M438.86,205.45c-18.2-20.12-48.67-22.38-72.38-35.56-40.79-22.7-56.6-74.39-93.71-102.71-23.43-17.88-55.09-24.82-83.4-20.9-40.19,5.57-78,32.5-89.36,72a99.79,99.79,0,0,0-3.44,35.41c1.82,23.55,6.88,47.4,2.1,70.53-5.26,25.49-21.85,47-31.76,71.09-12.34,30-14,63.6-8.76,95.58,3.6,21.82,10.78,43.84,25.76,60.11,1.13,1.23,2.31,2.4,3.51,3.55H251c10.27-13.09,18-28.58,27.07-42.33,22.73-34.58,59.1-59.24,98.83-70.81,17.8-5.18,37.09-8.26,51.39-20.06,14.71-12.13,21.47-31.49,24.4-50.34C456.26,248.16,454.35,222.58,438.86,205.45Z" style="fill:#fff;opacity:0.7000000000000001"></path></g><g id="freepik--Lines--inject-6"><path d="M73,262.67H63.8a2.71,2.71,0,0,1-2.71-2.7V154a2.71,2.71,0,0,1,2.71-2.71h50.82" style="fill:none;stroke:#263238;stroke-miterlimit:10"></path><circle cx="116.96" cy="151.31" r="1.88" style="fill:none;stroke:#263238;stroke-miterlimit:10"></circle><path d="M76.6,262.67a1.88,1.88,0,1,1-1.87-1.87A1.88,1.88,0,0,1,76.6,262.67Z" style="fill:none;stroke:#263238;stroke-miterlimit:10"></path><path d="M268.77,107.34h88.57a1,1,0,0,1,1,1v20.34" style="fill:none;stroke:#263238;stroke-miterlimit:10"></path><circle cx="266.89" cy="107.34" r="1.88" style="fill:none;stroke:#263238;stroke-miterlimit:10"></circle><path d="M360.2,130.44a1.88,1.88,0,1,1-1.88-1.87A1.88,1.88,0,0,1,360.2,130.44Z" style="fill:none;stroke:#263238;stroke-miterlimit:10"></path></g><g id="freepik--interface-3--inject-6"><rect x="289.86" y="136.97" width="136.93" height="136.93" rx="7.1" style="fill:#FF571F;stroke:#263238;stroke-miterlimit:10"></rect><rect x="300.83" y="149.41" width="114.99" height="67.87" style="fill:#263238"></rect><rect x="354.28" y="233.61" width="3.21" height="9.16" style="fill:#263238"></rect><rect x="359.16" y="233.61" width="3.21" height="9.16" style="fill:#263238"></rect><polygon points="382.22 233.61 382.22 242.77 388.42 238.19 382.22 233.61" style="fill:#263238"></polygon><polygon points="388.22 233.61 388.22 242.77 394.42 238.19 388.22 233.61" style="fill:#263238"></polygon><polygon points="334.42 242.77 334.42 233.61 328.22 238.19 334.42 242.77" style="fill:#263238"></polygon><polygon points="328.42 242.77 328.42 233.61 322.22 238.19 328.42 242.77" style="fill:#263238"></polygon><line x1="315.5" y1="255.45" x2="401.14" y2="255.45" style="fill:none;stroke:#263238;stroke-linecap:round;stroke-linejoin:round"></line><path d="M385.79,255.45a2.47,2.47,0,1,1-2.47-2.47A2.47,2.47,0,0,1,385.79,255.45Z" style="fill:#fff;stroke:#263238;stroke-miterlimit:10"></path><polygon points="309.29 254.75 309.29 256.16 310.65 257.16 310.65 253.75 309.29 254.75" style="fill:#263238"></polygon><rect x="308.46" y="254.81" width="0.55" height="1.29" style="fill:#263238"></rect><polygon points="405.29 254.75 405.29 256.16 406.65 257.16 406.65 253.75 405.29 254.75" style="fill:#263238"></polygon><rect x="404.46" y="254.81" width="0.55" height="1.29" style="fill:#263238"></rect><line x1="407.33" y1="254.47" x2="407.86" y2="253.96" style="fill:none;stroke:#263238;stroke-linecap:round;stroke-linejoin:round;stroke-width:0.5px"></line><line x1="407.33" y1="256.44" x2="407.86" y2="256.95" style="fill:none;stroke:#263238;stroke-linecap:round;stroke-linejoin:round;stroke-width:0.5px"></line><line x1="407.33" y1="255.45" x2="408.18" y2="255.45" style="fill:none;stroke:#263238;stroke-linecap:round;stroke-linejoin:round;stroke-width:0.5px"></line><line x1="315.5" y1="211.45" x2="401.14" y2="211.45" style="fill:none;stroke:#fff;stroke-linecap:round;stroke-linejoin:round"></line><line x1="339.03" y1="211.45" x2="315.5" y2="211.45" style="fill:none;stroke:#fff;stroke-linecap:round;stroke-linejoin:round;stroke-width:2px"></line><rect x="308.86" y="202.56" width="5.25" height="2.37" style="fill:#fff"></rect><rect x="308.86" y="199.2" width="5.25" height="2.37" style="fill:#fff"></rect><rect x="308.86" y="195.84" width="5.25" height="2.37" style="fill:#fff"></rect><rect x="308.86" y="192.47" width="5.25" height="2.37" style="fill:#fff"></rect><rect x="308.86" y="189.11" width="5.25" height="2.37" style="fill:#fff"></rect><rect x="308.86" y="185.75" width="5.25" height="2.37" style="fill:#fff"></rect><rect x="308.86" y="182.39" width="5.25" height="2.37" style="fill:#fff"></rect><rect x="308.86" y="179.02" width="5.25" height="2.37" style="fill:#FF571F"></rect><rect x="317.38" y="202.56" width="5.25" height="2.37" style="fill:#fff"></rect><rect x="317.38" y="199.2" width="5.25" height="2.37" style="fill:#fff"></rect><rect x="317.38" y="195.84" width="5.25" height="2.37" style="fill:#fff"></rect><rect x="317.38" y="192.47" width="5.25" height="2.37" style="fill:#fff"></rect><rect x="317.38" y="189.11" width="5.25" height="2.37" style="fill:#fff"></rect><rect x="317.38" y="185.75" width="5.25" height="2.37" style="fill:#fff"></rect><rect x="317.38" y="182.39" width="5.25" height="2.37" style="fill:#fff"></rect><rect x="317.38" y="179.02" width="5.25" height="2.37" style="fill:#fff"></rect><rect x="317.38" y="175.66" width="5.25" height="2.37" style="fill:#fff"></rect><rect x="317.38" y="172.3" width="5.25" height="2.37" style="fill:#FF571F"></rect><rect x="325.89" y="202.56" width="5.25" height="2.37" style="fill:#fff"></rect><rect x="325.89" y="199.2" width="5.25" height="2.37" style="fill:#fff"></rect><rect x="325.89" y="195.84" width="5.25" height="2.37" style="fill:#fff"></rect><rect x="325.89" y="192.47" width="5.25" height="2.37" style="fill:#fff"></rect><rect x="325.89" y="189.11" width="5.25" height="2.37" style="fill:#fff"></rect><rect x="325.89" y="185.75" width="5.25" height="2.37" style="fill:#fff"></rect><rect x="325.89" y="182.39" width="5.25" height="2.37" style="fill:#fff"></rect><rect x="325.89" y="179.02" width="5.25" height="2.37" style="fill:#FF571F"></rect><rect x="334.41" y="202.56" width="5.25" height="2.37" style="fill:#fff"></rect><rect x="334.41" y="199.2" width="5.25" height="2.37" style="fill:#fff"></rect><rect x="334.41" y="195.84" width="5.25" height="2.37" style="fill:#fff"></rect><rect x="334.41" y="192.47" width="5.25" height="2.37" style="fill:#fff"></rect><rect x="334.41" y="189.11" width="5.25" height="2.37" style="fill:#fff"></rect><rect x="334.41" y="185.75" width="5.25" height="2.37" style="fill:#FF571F"></rect><rect x="342.92" y="202.56" width="5.25" height="2.37" style="fill:#fff"></rect><rect x="342.92" y="199.2" width="5.25" height="2.37" style="fill:#fff"></rect><rect x="342.92" y="195.84" width="5.25" height="2.37" style="fill:#fff"></rect><rect x="342.92" y="192.47" width="5.25" height="2.37" style="fill:#fff"></rect><rect x="342.92" y="189.11" width="5.25" height="2.37" style="fill:#fff"></rect><rect x="342.92" y="185.75" width="5.25" height="2.37" style="fill:#fff"></rect><rect x="342.92" y="182.39" width="5.25" height="2.37" style="fill:#fff"></rect><rect x="342.92" y="179.02" width="5.25" height="2.37" style="fill:#FF571F"></rect><rect x="351.44" y="202.56" width="5.25" height="2.37" style="fill:#fff"></rect><rect x="351.44" y="199.2" width="5.25" height="2.37" style="fill:#fff"></rect><rect x="351.44" y="195.84" width="5.25" height="2.37" style="fill:#fff"></rect><rect x="351.44" y="192.47" width="5.25" height="2.37" style="fill:#fff"></rect><rect x="351.44" y="189.11" width="5.25" height="2.37" style="fill:#fff"></rect><rect x="351.44" y="185.75" width="5.25" height="2.37" style="fill:#fff"></rect><rect x="351.44" y="182.39" width="5.25" height="2.37" style="fill:#FF571F"></rect><rect x="359.95" y="202.56" width="5.25" height="2.37" style="fill:#fff"></rect><rect x="359.95" y="199.2" width="5.25" height="2.37" style="fill:#fff"></rect><rect x="359.95" y="195.84" width="5.25" height="2.37" style="fill:#fff"></rect><rect x="359.95" y="192.47" width="5.25" height="2.37" style="fill:#fff"></rect><rect x="359.95" y="189.11" width="5.25" height="2.37" style="fill:#fff"></rect><rect x="359.95" y="185.75" width="5.25" height="2.37" style="fill:#fff"></rect><rect x="359.95" y="182.39" width="5.25" height="2.37" style="fill:#fff"></rect><rect x="359.95" y="179.02" width="5.25" height="2.37" style="fill:#fff"></rect><rect x="359.95" y="175.66" width="5.25" height="2.37" style="fill:#fff"></rect><rect x="359.95" y="172.3" width="5.25" height="2.37" style="fill:#fff"></rect><rect x="359.95" y="168.94" width="5.25" height="2.37" style="fill:#FF571F"></rect><rect x="368.47" y="202.56" width="5.25" height="2.37" style="fill:#fff"></rect><rect x="368.47" y="199.2" width="5.25" height="2.37" style="fill:#fff"></rect><rect x="368.47" y="195.84" width="5.25" height="2.37" style="fill:#fff"></rect><rect x="368.47" y="192.47" width="5.25" height="2.37" style="fill:#fff"></rect><rect x="368.47" y="189.11" width="5.25" height="2.37" style="fill:#fff"></rect><rect x="368.47" y="185.75" width="5.25" height="2.37" style="fill:#fff"></rect><rect x="368.47" y="182.39" width="5.25" height="2.37" style="fill:#fff"></rect><rect x="368.47" y="179.02" width="5.25" height="2.37" style="fill:#fff"></rect><rect x="368.47" y="175.66" width="5.25" height="2.37" style="fill:#fff"></rect><rect x="368.47" y="172.3" width="5.25" height="2.37" style="fill:#fff"></rect><rect x="368.47" y="168.94" width="5.25" height="2.37" style="fill:#fff"></rect><rect x="368.47" y="165.57" width="5.25" height="2.37" style="fill:#fff"></rect><rect x="368.47" y="162.21" width="5.25" height="2.37" style="fill:#fff"></rect><rect x="368.47" y="158.85" width="5.25" height="2.37" style="fill:#FF571F"></rect><rect x="376.98" y="202.56" width="5.25" height="2.37" style="fill:#fff"></rect><rect x="376.98" y="199.2" width="5.25" height="2.37" style="fill:#fff"></rect><rect x="376.98" y="195.84" width="5.25" height="2.37" style="fill:#fff"></rect><rect x="376.98" y="192.47" width="5.25" height="2.37" style="fill:#fff"></rect><rect x="376.98" y="189.11" width="5.25" height="2.37" style="fill:#fff"></rect><rect x="376.98" y="185.75" width="5.25" height="2.37" style="fill:#fff"></rect><rect x="376.98" y="182.39" width="5.25" height="2.37" style="fill:#fff"></rect><rect x="376.98" y="179.02" width="5.25" height="2.37" style="fill:#fff"></rect><rect x="376.98" y="175.66" width="5.25" height="2.37" style="fill:#fff"></rect><rect x="376.98" y="172.3" width="5.25" height="2.37" style="fill:#fff"></rect><rect x="376.98" y="168.94" width="5.25" height="2.37" style="fill:#fff"></rect><rect x="376.98" y="165.57" width="5.25" height="2.37" style="fill:#FF571F"></rect><rect x="385.5" y="202.56" width="5.25" height="2.37" style="fill:#fff"></rect><rect x="385.5" y="199.2" width="5.25" height="2.37" style="fill:#fff"></rect><rect x="385.5" y="195.84" width="5.25" height="2.37" style="fill:#fff"></rect><rect x="385.5" y="192.47" width="5.25" height="2.37" style="fill:#fff"></rect><rect x="385.5" y="189.11" width="5.25" height="2.37" style="fill:#fff"></rect><rect x="385.5" y="185.75" width="5.25" height="2.37" style="fill:#fff"></rect><rect x="385.5" y="182.39" width="5.25" height="2.37" style="fill:#fff"></rect><rect x="385.5" y="179.02" width="5.25" height="2.37" style="fill:#fff"></rect><rect x="385.5" y="175.66" width="5.25" height="2.37" style="fill:#fff"></rect><rect x="385.5" y="172.3" width="5.25" height="2.37" style="fill:#FF571F"></rect><rect x="394.01" y="202.56" width="5.25" height="2.37" style="fill:#fff"></rect><rect x="394.01" y="199.2" width="5.25" height="2.37" style="fill:#fff"></rect><rect x="394.01" y="195.84" width="5.25" height="2.37" style="fill:#fff"></rect><rect x="394.01" y="192.47" width="5.25" height="2.37" style="fill:#fff"></rect><rect x="394.01" y="189.11" width="5.25" height="2.37" style="fill:#FF571F"></rect><rect x="402.53" y="202.56" width="5.25" height="2.37" style="fill:#fff"></rect><rect x="402.53" y="199.2" width="5.25" height="2.37" style="fill:#fff"></rect><rect x="402.53" y="195.84" width="5.25" height="2.37" style="fill:#fff"></rect><rect x="402.53" y="192.47" width="5.25" height="2.37" style="fill:#fff"></rect><rect x="402.53" y="189.11" width="5.25" height="2.37" style="fill:#fff"></rect><rect x="402.53" y="185.75" width="5.25" height="2.37" style="fill:#fff"></rect><rect x="402.53" y="182.39" width="5.25" height="2.37" style="fill:#fff"></rect><rect x="402.53" y="179.02" width="5.25" height="2.37" style="fill:#FF571F"></rect></g><g id="freepik--interface-2--inject-6"><rect x="123.3" y="83.43" width="136.93" height="136.93" rx="7.1" style="fill:#FF571F"></rect><g style="clip-path:url(#freepik--clip-path--inject-6)"><path d="M129.61,83.43H260.22a0,0,0,0,1,0,0V220.36a0,0,0,0,1,0,0H123.3a0,0,0,0,1,0,0V89.74a6.31,6.31,0,0,1,6.31-6.31Z" style="fill:#fff;opacity:0.5"></path></g><rect x="123.3" y="83.43" width="136.93" height="136.93" rx="7.1" style="fill:none;stroke:#263238;stroke-miterlimit:10"></rect><rect x="133.47" y="95.07" width="115.91" height="24.53" rx="3.71" style="fill:#fff;stroke:#263238;stroke-miterlimit:10"></rect><circle cx="145.5" cy="107.34" r="8.04" transform="translate(-33.28 134.32) rotate(-45)" style="fill:#FF571F"></circle><path d="M149.36,111.08c0,1-1.19,1.73-2.65,1.73s-2.64-.77-2.64-1.73,1.18-1.73,2.64-1.73S149.36,110.12,149.36,111.08Z" style="fill:#263238"></path><path d="M146.39,101.86l-1.81,9.22h-.51l1.33-6.74.34-1.75a3.07,3.07,0,0,0,.65-.72Z" style="fill:#263238"></path><path d="M146.39,101.87l-.45,2.22a2.44,2.44,0,0,1-.54.25,4.28,4.28,0,0,1-1.75.22,2.09,2.09,0,0,0-2,1.06,3,3,0,0,1,2.37-2.27,3.42,3.42,0,0,0,2.38-1.48Z" style="fill:#263238"></path><path d="M185.56,106.72H161a2,2,0,0,1,0-4h24.53a2,2,0,0,1,0,4Z" style="fill:#263238"></path><path d="M205.26,112H160a1,1,0,0,1,0-2h45.23a1,1,0,0,1,0,2Z" style="fill:#263238"></path><rect x="230.02" y="101.07" width="12.53" height="12.53" rx="2.06" style="fill:#fff;stroke:#263238;stroke-miterlimit:10"></rect><line x1="236.29" y1="104.61" x2="236.29" y2="110.07" style="fill:none;stroke:#263238;stroke-miterlimit:10"></line><line x1="239.02" y1="107.34" x2="233.56" y2="107.34" style="fill:none;stroke:#263238;stroke-miterlimit:10"></line><rect x="133.47" y="124.44" width="115.91" height="24.53" rx="3.71" style="fill:#fff;stroke:#263238;stroke-miterlimit:10"></rect><circle cx="145.5" cy="136.71" r="8.04" transform="translate(-54.05 142.92) rotate(-45)" style="fill:#FF571F"></circle><path d="M149.36,140.45c0,1-1.19,1.73-2.65,1.73s-2.64-.77-2.64-1.73,1.18-1.73,2.64-1.73S149.36,139.49,149.36,140.45Z" style="fill:#263238"></path><path d="M146.39,131.23l-1.81,9.22h-.51l1.33-6.74.34-1.75a3.3,3.3,0,0,0,.65-.72Z" style="fill:#263238"></path><path d="M146.39,131.24l-.45,2.22a2.44,2.44,0,0,1-.54.25,4.28,4.28,0,0,1-1.75.22,2.09,2.09,0,0,0-2,1.06,3,3,0,0,1,2.37-2.27,3.09,3.09,0,0,0,1.73-.76A3.3,3.3,0,0,0,146.39,131.24Z" style="fill:#263238"></path><path d="M185.56,136.09H161a2,2,0,0,1,0-4h24.53a2,2,0,0,1,0,4Z" style="fill:#263238"></path><path d="M205.26,141.32H160a1,1,0,0,1,0-2h45.23a1,1,0,0,1,0,2Z" style="fill:#263238"></path><rect x="230.02" y="130.44" width="12.53" height="12.53" rx="2.06" style="fill:#fff;stroke:#263238;stroke-miterlimit:10"></rect><line x1="236.29" y1="133.98" x2="236.29" y2="139.44" style="fill:none;stroke:#263238;stroke-miterlimit:10"></line><line x1="239.02" y1="136.71" x2="233.56" y2="136.71" style="fill:none;stroke:#263238;stroke-miterlimit:10"></line><rect x="133.47" y="153.81" width="115.91" height="24.53" rx="3.71" style="fill:#fff;stroke:#263238;stroke-miterlimit:10"></rect><circle cx="145.5" cy="166.08" r="8.04" transform="translate(-74.82 151.52) rotate(-45)" style="fill:#FF571F"></circle><path d="M149.36,169.82c0,1-1.19,1.73-2.65,1.73s-2.64-.77-2.64-1.73,1.18-1.73,2.64-1.73S149.36,168.86,149.36,169.82Z" style="fill:#263238"></path><path d="M146.39,160.6l-1.81,9.22h-.51l1.33-6.74.34-1.75a3.3,3.3,0,0,0,.65-.72Z" style="fill:#263238"></path><path d="M146.39,160.61l-.45,2.22a2.44,2.44,0,0,1-.54.25,4.28,4.28,0,0,1-1.75.22,2.09,2.09,0,0,0-2,1.06,3,3,0,0,1,2.37-2.27,3.16,3.16,0,0,0,1.73-.76A3.3,3.3,0,0,0,146.39,160.61Z" style="fill:#263238"></path><path d="M185.56,165.46H161a2,2,0,0,1,0-4h24.53a2,2,0,0,1,0,4Z" style="fill:#263238"></path><path d="M205.26,170.69H160a1,1,0,0,1,0-2h45.23a1,1,0,0,1,0,2Z" style="fill:#263238"></path><rect x="230.02" y="159.81" width="12.53" height="12.53" rx="2.06" style="fill:#fff;stroke:#263238;stroke-miterlimit:10"></rect><line x1="236.29" y1="163.35" x2="236.29" y2="168.81" style="fill:none;stroke:#263238;stroke-miterlimit:10"></line><line x1="239.02" y1="166.08" x2="233.56" y2="166.08" style="fill:none;stroke:#263238;stroke-miterlimit:10"></line><rect x="133.47" y="183.18" width="115.91" height="24.53" rx="3.71" style="fill:#fff;stroke:#263238;stroke-miterlimit:10"></rect><circle cx="145.5" cy="195.45" r="8.04" transform="translate(-95.59 160.13) rotate(-45)" style="fill:#FF571F"></circle><ellipse cx="146.71" cy="199.19" rx="2.64" ry="1.73" style="fill:#263238"></ellipse><path d="M146.39,190l-1.81,9.22h-.51l1.33-6.74.34-1.75a3.3,3.3,0,0,0,.65-.72Z" style="fill:#263238"></path><path d="M146.39,190l-.45,2.22a2.44,2.44,0,0,1-.54.25,4.13,4.13,0,0,1-1.75.21,2.11,2.11,0,0,0-2,1.07,3,3,0,0,1,2.37-2.27,3.16,3.16,0,0,0,1.73-.76A3.3,3.3,0,0,0,146.39,190Z" style="fill:#263238"></path><path d="M185.56,194.83H161a2,2,0,0,1,0-4h24.53a2,2,0,0,1,0,4Z" style="fill:#263238"></path><path d="M205.26,200.06H160a1,1,0,0,1,0-2h45.23a1,1,0,0,1,0,2Z" style="fill:#263238"></path><rect x="230.02" y="189.18" width="12.53" height="12.53" rx="2.06" style="fill:#fff;stroke:#263238;stroke-miterlimit:10"></rect><line x1="236.29" y1="192.72" x2="236.29" y2="198.18" style="fill:none;stroke:#263238;stroke-miterlimit:10"></line><line x1="239.02" y1="195.45" x2="233.56" y2="195.45" style="fill:none;stroke:#263238;stroke-miterlimit:10"></line></g><g id="freepik--interface-1--inject-6"><rect x="79.32" y="243.43" width="136.93" height="136.93" rx="7.1" style="fill:#fff;stroke:#263238;stroke-miterlimit:10"></rect><circle cx="147.78" cy="321.75" r="42.92" transform="translate(-119.6 89.66) rotate(-24.37)" style="fill:#FF571F"></circle><rect x="92.4" y="255.22" width="110.77" height="15.89" rx="2.09" style="fill:#FF571F"></rect><g style="clip-path:url(#freepik--clip-path-2--inject-6)"><rect x="92.4" y="255.22" width="110.77" height="15.89" rx="2.09" style="fill:#fff;opacity:0.7000000000000001"></rect></g><rect x="92.4" y="255.22" width="110.77" height="15.89" rx="2.09" style="fill:none;stroke:#263238;stroke-miterlimit:10"></rect><path d="M187.28,255.22h13.8a2.09,2.09,0,0,1,2.09,2.09V269a2.09,2.09,0,0,1-2.09,2.09h-13.8a0,0,0,0,1,0,0V255.22A0,0,0,0,1,187.28,255.22Z" style="fill:#FF571F;stroke:#263238;stroke-miterlimit:10"></path><path d="M200.17,267.17l-2.65-2.65a1,1,0,0,0-1-.25l-.24-.24a3.77,3.77,0,0,0-.32-5,3.9,3.9,0,0,0-5.37,0,3.79,3.79,0,0,0,5,5.69l.24.24a1,1,0,0,0,.24.95l2.66,2.66a1,1,0,0,0,.71.29,1,1,0,0,0,.7-.29A1,1,0,0,0,200.17,267.17Zm-8.82-3.46a2.8,2.8,0,1,1,4,0A2.79,2.79,0,0,1,191.35,263.71Z" style="fill:#263238"></path><ellipse cx="155.01" cy="342.81" rx="15.69" ry="10.29" style="fill:#263238"></ellipse><path d="M153.1,288.08l-10.78,54.73h-3l7.88-40,2.05-10.39a19.39,19.39,0,0,0,3.84-4.3Z" style="fill:#263238"></path><path d="M153.09,288.1l-2.66,13.23a16.82,16.82,0,0,1-3.23,1.46,25,25,0,0,1-10.4,1.28,12.65,12.65,0,0,0-11.94,6.31c.15-.6,3.24-12.28,14.11-13.47a18.91,18.91,0,0,0,10.28-4.51A19.39,19.39,0,0,0,153.09,288.1Z" style="fill:#263238"></path></g><g id="freepik--Desktop--inject-6"><line x1="43.96" y1="454.38" x2="437.98" y2="454.38" style="fill:none;stroke:#263238;stroke-linecap:round;stroke-linejoin:round"></line><line x1="127.75" y1="458.47" x2="378.42" y2="458.47" style="fill:none;stroke:#263238;stroke-linecap:round;stroke-linejoin:round"></line><line x1="208.4" y1="466.91" x2="278.07" y2="466.91" style="fill:none;stroke:#263238;stroke-linecap:round;stroke-linejoin:round"></line><line x1="385.32" y1="458.8" x2="396.64" y2="458.8" style="fill:none;stroke:#263238;stroke-linecap:round;stroke-linejoin:round"></line><line x1="196.12" y1="466.91" x2="182.65" y2="466.91" style="fill:none;stroke:#263238;stroke-linecap:round;stroke-linejoin:round"></line><line x1="72.56" y1="458.8" x2="58.31" y2="458.8" style="fill:none;stroke:#263238;stroke-linecap:round;stroke-linejoin:round"></line></g><g id="freepik--Character--inject-6"><path d="M439.88,365.67l-15.11,88.71H325.49l18.4-86.69a31.27,31.27,0,0,1,30.34-24.77h46.44a19.34,19.34,0,0,1,13.91,5.85,13.43,13.43,0,0,1,1,1A19.4,19.4,0,0,1,439.88,365.67Z" style="fill:#263238"></path><g style="clip-path:url(#freepik--clip-path-3--inject-6)"><path d="M356.83,379.17a12,12,0,0,0,9.11,4.16h26.24A26.13,26.13,0,0,0,417.75,363l1.46-6.24a15.44,15.44,0,0,1,10.93-11.43,19.42,19.42,0,0,0-9.47-2.45H374.49a31.22,31.22,0,0,0-17.34,5.25L354,369.54A12,12,0,0,0,356.83,379.17Z" style="fill:#fff;opacity:0.1"></path><path d="M420.18,357l-1.45,6.24a27.13,27.13,0,0,1-26.55,21.07H365.94A13,13,0,0,1,353,369.4L356,349a31.23,31.23,0,0,0-12.13,18.74l-18.4,86.69h78.6l18.51-95.73a12.2,12.2,0,0,1,12-9.89,18.84,18.84,0,0,0-3.24-2.65A14.44,14.44,0,0,0,420.18,357Z" style="fill:#fff;opacity:0.1"></path><path d="M391.09,454.38h-65.6l18.4-86.69a31.27,31.27,0,0,1,30.34-24.77c1.47,4.48,1.82,11.45-2.21,21.74,0,0,9.23-1.49,11.87,22.43C386.4,409.81,386.76,404.28,391.09,454.38Z" style="opacity:0.1"></path></g><path d="M439.88,365.67l-15.11,88.71H325.49l18.4-86.69a31.27,31.27,0,0,1,30.34-24.77h46.44a19.34,19.34,0,0,1,13.91,5.85,13.43,13.43,0,0,1,1,1A19.4,19.4,0,0,1,439.88,365.67Z" style="fill:none;stroke:#263238;stroke-miterlimit:10"></path><path d="M254.37,441.44H242.71c-1,0-13.41-1.74-15.39-2s-7.95,14.93-7.95,14.93h46.42Z" style="fill:#fff;stroke:#263238;stroke-linecap:round;stroke-linejoin:round"></path><path d="M228.08,441.68s-.66,2.51,0,3.43,2.24.66,2.24,2.37-.13,2.77,2.24,4,.66,2.19,2.51,2.94" style="fill:none;stroke:#263238;stroke-linecap:round;stroke-linejoin:round"></path><path d="M227.78,448s-4.19,4.28-5.37,6.35" style="fill:none;stroke:#263238;stroke-linecap:round;stroke-linejoin:round"></path><path d="M229.26,451.84a16.62,16.62,0,0,0-2.5,2.54" style="fill:none;stroke:#263238;stroke-linecap:round;stroke-linejoin:round"></path><path d="M230.71,303.15c-.71-3.51-17,6.82-16.9,14.39s14,6.37,14,6.37S231.89,309,230.71,303.15Z" style="fill:#263238;stroke:#263238;stroke-linecap:round;stroke-linejoin:round"></path><path d="M229.79,309.12c-3.33-18.07-2.47-17-4.75-23.91a15.47,15.47,0,0,0-4.38-7c-8.5-4.68-23.51-16.33-23.51-16.33s-1.81,1.33.3,3.7,9.67,8.71,9.67,8.71-5,.69-4.13,3.53c0,0-3,.68-.9,5.55a7,7,0,0,0-.49,2.44c.38,1.8,2.23,4,4.06,3.56,0,0,5.41,6.19,10.68,8.45l1.19,22.72Z" style="fill:#fff;stroke:#263238;stroke-linecap:round;stroke-linejoin:round"></path><path d="M209.09,276.58a2.53,2.53,0,0,1-.93,1.65" style="fill:none;stroke:#263238;stroke-linecap:round;stroke-linejoin:round"></path><path d="M206.91,277.11a4.21,4.21,0,0,1,1.72,2.82" style="fill:none;stroke:#263238;stroke-linecap:round;stroke-linejoin:round"></path><path d="M203,277.84c0,1.64,2.82,5.52,4.65,5.86" style="fill:none;stroke:#263238;stroke-linecap:round;stroke-linejoin:round"></path><path d="M202.09,283.39a18.55,18.55,0,0,0,1.26,1.83c2.9,3.39,4.29,1,4.29,1" style="fill:none;stroke:#263238;stroke-linecap:round;stroke-linejoin:round"></path><path d="M205.66,289.39a13.46,13.46,0,0,0,2.5-.79c.93-.76,0-2.3,0-2.3" style="fill:none;stroke:#263238;stroke-linecap:round;stroke-linejoin:round"></path><path d="M218.91,279.55a5.49,5.49,0,0,1-3,.2c-1.39-.4-5.74-1.71-6.93-.46s-1.38,6.91-1.38,6.91,2.4,1.68,3.63-2.5c0,0,1.31,1,2,4s2.08,5.85,3.86,5.79" style="fill:#fff;stroke:#263238;stroke-linecap:round;stroke-linejoin:round"></path><path d="M307.86,288.69s25.71,4.24,34.68,16.64-4,35.6,3.16,48.53,29.54,23.47,18.46,52.22-57,12.13-75.3-22.42S307.86,288.69,307.86,288.69Z" style="fill:#263238"></path><path d="M312.71,289.93s-13.31-4.65-27.35-.69-14.43,16.87-11.26,37.12-7.08,36.35,5.76,46.3,51.93-13.79,51.93-13.79S347.76,302.48,312.71,289.93Z" style="fill:#263238"></path><path d="M378.42,454.38H298.56s-10.35-13-16.81-21.88l-.92-1.28a59.64,59.64,0,0,1-3.75-5.72,4.17,4.17,0,0,1-.32-.8c-.79-2.56-.34-7.17.55-11.93.27-1.48.59-3,.92-4.43,1.46-6.41,3.25-12,3.25-12s-2.21.13-5.77.27c-1.6.07-3.46.14-5.53.2-3.32.09-7.15.17-11.16.18l-4.73,0c-4.85-.06-9.78-.23-14.24-.59-1.45-.12-2.85-.25-4.18-.42a37.28,37.28,0,0,1-9.93-2.22c-1.33-.59-2.52-2-3.58-4.15a39.92,39.92,0,0,1-2.75-7.88A130,130,0,0,1,216.92,367c-.28-2.09-.53-4.24-.76-6.41-.4-3.72-.74-7.49-1-11.18q-.17-2.24-.3-4.41c-.22-3.45-.4-6.78-.54-9.85-.06-1.51-.12-3-.17-4.33-.17-4.56-.25-8.28-.3-10.62,0-1.73,0-2.7,0-2.7s12.57-2.69,16.9-14.39c0,0,.47,2,1.22,5.57.31,1.5.67,3.27,1.07,5.28.33,1.7.69,3.56,1.05,5.56.6,3.15,1.22,6.66,1.83,10.43.25,1.49.49,3,.74,4.59.44,2.89.88,5.89,1.29,9,.18,1.38.36,2.78.53,4.19.22,1.68.41,3.37.6,5.08s.36,3.31.52,5,.28,3.07.4,4.6c.07.86.14,1.71.2,2.57a21,21,0,0,1,3.27-.25,2.45,2.45,0,0,1,1.22.25c.79.58,1.34,3.92,1.34,3.92l1.09-.22,4-.8,7.79-1.5,4-.74c2-.37,4-.74,6.07-1.09l4-.69c2.86-.47,5.58-.9,8-1.22,1.51-.21,2.88-.38,4.06-.49l.63-.06a44.33,44.33,0,0,1,7.42.21c15.79,1.48,43.85,8.2,57.65,9,6,.36,9.75,10.74,12.65,24.06.78,3.58,1.5,7.38,2.2,11.25q.57,3.21,1.11,6.45c.29,1.71.57,3.4.86,5.1h0c.25,1.5.5,3,.76,4.46q.47,2.71.94,5.32c.28,1.55.56,3.07.86,4.55.42,2.15.85,4.2,1.31,6.14.35,1.49.71,2.91,1.08,4.24a43.37,43.37,0,0,0,2.58,7.18,12.8,12.8,0,0,0,2.22,3.35A5.32,5.32,0,0,0,378.42,454.38Z" style="fill:#FF571F"></path><g style="clip-path:url(#freepik--clip-path-4--inject-6)"><g style="opacity:0.5"><path d="M369.78,403.27a18.08,18.08,0,0,1-4.28,3.37c-5.95,3.49-14.57,4.92-22.76,4.62l-1.26-.07c-13.8-1-26.85-9.35-40.7-24.45-10.64-11.61-9.2-20.62-7.78-24.45,15.79,1.48,43.85,8.2,57.65,9,6,.36,9.75,10.74,12.65,24.06l3.18-2.3S369.69,400.5,369.78,403.27Z" style="fill:#fff"></path><path d="M368.23,422.66a24.59,24.59,0,0,1-3.83,2.15,29.4,29.4,0,0,1-12.21,2.53,38.31,38.31,0,0,1-11-1.69,82.54,82.54,0,0,1-10.35-3.89h0c-9.5-4.29-17.45-9.92-25.21-15.42q-2.4-1.69-4.81-3.38a30.91,30.91,0,0,1-11.63-16.73,28.91,28.91,0,0,1-8.29-23.59c1.51-.21,2.88-.38,4.06-.49a25.14,25.14,0,0,0,7.42,21.61l.44.43.12.59c0,.09,2.13,9.31,10.17,14.9,1.62,1.12,3.22,2.26,4.83,3.4,7.81,5.53,15.3,10.83,24.19,14.9a78.66,78.66,0,0,0,10.21,3.85c9.1,2.73,16.68,1.4,21.84-1.39a18.65,18.65,0,0,0,3.3-2.23C367.72,419.7,368,421.19,368.23,422.66Z" style="fill:#fff"></path><path d="M370,432.53a31.79,31.79,0,0,1-5,3.37,42.31,42.31,0,0,1-19.68,5.18,29.45,29.45,0,0,1-9.47-1.48c-4.82-1.64-11.08-5.43-17.59-9.91h0c-5.62-3.85-11.43-8.22-16.64-12.14-6-4.5-11.65-8.75-13.42-9.39-5.87-2.11-6.09-12.43-6-15.8-10.63-10.51-13-21.24-13.24-27.82l4-.69c.12,5.84,2.11,16.13,12.68,26.26l.66.64,0,.93c-.22,3.68.29,11.63,3.32,12.72,2.22.8,6.71,4.13,14.46,10,6,4.54,13.38,10.05,20.11,14.44,4.91,3.2,9.49,5.8,13,7,8.95,3,20.52.07,27.68-4.37h0a21.27,21.27,0,0,0,4.36-3.45C369.45,429.53,369.73,431.05,370,432.53Z" style="fill:#fff"></path><path d="M275.71,396.59c-1.6.07-3.46.14-5.53.2-8.32-9.25-10.64-23.05-11.28-30.42l4-.74C263.52,373.08,266,388.45,275.71,396.59Z" style="fill:#fff"></path><path d="M372.42,442.91a42.57,42.57,0,0,1-7.69,4.65,46.48,46.48,0,0,1-19.83,4.22c-18.1,0-36.58-9.1-47.68-20.23l-1.42-1.42c-9.74-9.71-15.56-14.89-18.49-17.36.27-1.48.59-3,.92-4.43,2.29,1.83,8.79,7.31,21.82,20.38.47.48,1,.95,1.47,1.42,15.13,14.08,42.59,24.1,63.48,12.8a39.37,39.37,0,0,0,6.34-4.27C371.69,440.16,372.05,441.58,372.42,442.91Z" style="fill:#fff"></path><path d="M259,397l-4.73,0c-6.7-11.76-6.7-19-7.21-28.28l4-.8C253.47,377.35,253.05,382.42,259,397Z" style="fill:#fff"></path><path d="M294.45,437.58c8.54,7.54,23.36,13.87,38.56,16.8H317.83c-10.73-3.64-20.15-8.62-26-13.81a122,122,0,0,0-10.06-8.07l-1.67-1.14.75-.14a59.64,59.64,0,0,1-3.75-5.72,4.17,4.17,0,0,1-.32-.8,69.79,69.79,0,0,1,8.91,5.71C288.28,432.35,291.2,434.7,294.45,437.58Z" style="fill:#fff"></path><path d="M377.22,453.44c-.48.33-1,.64-1.48.94H365.12a32.76,32.76,0,0,0,9.88-4.29A12.8,12.8,0,0,0,377.22,453.44Z" style="fill:#fff"></path><path d="M240.05,396.36c-1.45-.12-2.85-.25-4.18-.42,1.78-6.37,5.34-20.85,4.09-33.54.07.86.14,1.71.2,2.57a21,21,0,0,1,3.27-.25C244.49,373.17,241.47,390.74,240.05,396.36Z" style="fill:#fff"></path><path d="M239.56,357.8c-2.94,13.4-9.77,24.62-17.2,31.77a39.92,39.92,0,0,1-2.75-7.88c11.32-8.52,18-21.41,19.43-28.86C239.22,354.48,239.4,356.14,239.56,357.8Z" style="fill:#fff"></path><path d="M238.44,347.75A39.72,39.72,0,0,1,216.92,367c-.28-2.09-.53-4.24-.76-6.41,10.41-4.21,17.89-10.55,21.75-17.07C238.09,344.94,238.27,346.34,238.44,347.75Z" style="fill:#fff"></path><path d="M236.62,334.58c-4.77,8.7-13.13,14.13-21.47,14.87q-.17-2.24-.3-4.41a30.07,30.07,0,0,0,21-15.05C236.13,331.48,236.37,333,236.62,334.58Z" style="fill:#fff"></path><path d="M234.05,319.56c-3.82,8.39-10.12,15.07-19.74,15.63-.06-1.51-.12-3-.17-4.33A25.33,25.33,0,0,0,233,314C233.33,315.7,233.69,317.56,234.05,319.56Z" style="fill:#fff"></path><path d="M231.93,308.72c-5.13,8.19-11.84,11.06-18.09,11.52,0-1.73,0-2.7,0-2.7s12.57-2.69,16.9-14.39C230.71,303.15,231.18,305.18,231.93,308.72Z" style="fill:#fff"></path></g><path d="M281.48,396.32s-2.21.13-5.77.27c-1.6.07-3.46.14-5.53.2-3.32.09-7.15.17-11.16.18l-4.73,0-2.71-.05a18.65,18.65,0,0,1,8.88-3.81c9.76-1,10.76-3.64,10.76-3.64a10.36,10.36,0,0,0,9.17-4.29C281.1,387.06,281.48,396.32,281.48,396.32Z" style="fill-opacity:0.7000000000000001;opacity:0.2"></path><path d="M378.42,454.38H298.56s-10.35-13-16.81-21.88l-.92-1.28a59.64,59.64,0,0,1-3.75-5.72,4.17,4.17,0,0,1-.32-.8c-.63-2-.47-5.37.07-9.05,1.31,3.39,3.43,6.69,6.67,6.43,6.5-.53,15.24,7.56,22.74,6.15s20.27-2.92,21.66-10.07c0,0,.7,2.35,3.55,1.29,0,0,19,2.54,35.14-6.49,0,0,0,.09,0,.13.29,1.71.57,3.4.86,5.1h0c.25,1.5.5,3,.76,4.46q.47,2.71.94,5.32c.28,1.55.56,3.07.86,4.55.42,2.15.85,4.2,1.31,6.14.35,1.49.71,2.91,1.08,4.24a43.37,43.37,0,0,0,2.58,7.18,12.8,12.8,0,0,0,2.22,3.35A5.32,5.32,0,0,0,378.42,454.38Z" style="fill-opacity:0.7000000000000001;opacity:0.2"></path></g><path d="M378.42,454.38H298.56s-10.35-13-16.81-21.88l-.92-1.28a59.64,59.64,0,0,1-3.75-5.72,4.17,4.17,0,0,1-.32-.8c-.79-2.56-.34-7.17.55-11.93.27-1.48.59-3,.92-4.43,1.46-6.41,3.25-12,3.25-12s-2.21.13-5.77.27c-1.6.07-3.46.14-5.53.2-3.32.09-7.15.17-11.16.18l-4.73,0c-4.85-.06-9.78-.23-14.24-.59-1.45-.12-2.85-.25-4.18-.42a37.28,37.28,0,0,1-9.93-2.22c-1.33-.59-2.52-2-3.58-4.15a39.92,39.92,0,0,1-2.75-7.88A130,130,0,0,1,216.92,367c-.28-2.09-.53-4.24-.76-6.41-.4-3.72-.74-7.49-1-11.18q-.17-2.24-.3-4.41c-.22-3.45-.4-6.78-.54-9.85-.06-1.51-.12-3-.17-4.33-.17-4.56-.25-8.28-.3-10.62,0-1.73,0-2.7,0-2.7s12.57-2.69,16.9-14.39c0,0,.47,2,1.22,5.57.31,1.5.67,3.27,1.07,5.28.33,1.7.69,3.56,1.05,5.56.6,3.15,1.22,6.66,1.83,10.43.25,1.49.49,3,.74,4.59.44,2.89.88,5.89,1.29,9,.18,1.38.36,2.78.53,4.19.22,1.68.41,3.37.6,5.08s.36,3.31.52,5,.28,3.07.4,4.6c.07.86.14,1.71.2,2.57a21,21,0,0,1,3.27-.25,2.45,2.45,0,0,1,1.22.25c.79.58,1.34,3.92,1.34,3.92l1.09-.22,4-.8,7.79-1.5,4-.74c2-.37,4-.74,6.07-1.09l4-.69c2.86-.47,5.58-.9,8-1.22,1.51-.21,2.88-.38,4.06-.49l.63-.06a44.33,44.33,0,0,1,7.42.21c15.79,1.48,43.85,8.2,57.65,9,6,.36,9.75,10.74,12.65,24.06.78,3.58,1.5,7.38,2.2,11.25q.57,3.21,1.11,6.45c.29,1.71.57,3.4.86,5.1h0c.25,1.5.5,3,.76,4.46q.47,2.71.94,5.32c.28,1.55.56,3.07.86,4.55.42,2.15.85,4.2,1.31,6.14.35,1.49.71,2.91,1.08,4.24a43.37,43.37,0,0,0,2.58,7.18,12.8,12.8,0,0,0,2.22,3.35A5.32,5.32,0,0,0,378.42,454.38Z" style="fill:none;stroke:#263238;stroke-linecap:round;stroke-linejoin:round"></path><path d="M363.3,395.39l3.18-2.3s3.21,7.41,3.3,10.18a1.77,1.77,0,0,1-.08.7c-.35.92-1.76,5.14-3.09,9.12-.17.51-.34,1-.5,1.5-.83,2.51-1.57,4.73-1.89,5.68h0l-.05.15-.11.34s.15,1.57.34,4c.14,1.81.29,4.1.41,6.62h0c.08,1.43.13,2.93.18,4.46,0,.27,0,.55,0,.82,0,1.34,0,2.69,0,4,0,.75,0,1.48,0,2.2-.05,1.63-.13,3.19-.27,4.62-.31,3.17-.88,5.69-1.84,6.82H259.2s-9-6.11-9.5-10.85a24.52,24.52,0,0,1,0-7.12l1,0,3.8.21,5.57-1.23,3.94-.84c3.33-.7,7.14-1.5,10.8-2.22,1.35-.27,2.68-.52,3.95-.76l1.37-.26.75-.14c1.83-.33,3.48-.61,4.84-.81a25.39,25.39,0,0,1,3.19-.33l2.85,0,4.09,0h5.72l4.2,0L310,430c2.35-.05,4.61-.13,6.63-.25l1.65-.1h0c1.19-.09,2.25-.19,3.16-.31a11.31,11.31,0,0,0,2.7-.58,1.15,1.15,0,0,0,.49-.31,2.45,2.45,0,0,1,.34-.37c1.63-1.5,4.15.11,4.15.11l.42-1.56,1.32-4.91h0l.06-.22.9-3.32.33-.24.25-.19h0" style="fill:#FF571F"></path><g style="clip-path:url(#freepik--clip-path-5--inject-6)"><g style="opacity:0.5"><path d="M369.78,403.27a18.08,18.08,0,0,1-4.28,3.37c-5.95,3.49-14.57,4.92-22.76,4.62l-1.26-.07,21.82-15.8,3.18-2.3S369.69,400.5,369.78,403.27Z" style="fill:#fff"></path><path d="M366.11,414.59c-.83,2.51-1.57,4.73-1.89,5.68h0a39.3,39.3,0,0,1-17.53,4,48.18,48.18,0,0,1-15.8-2.76l.9-3.32.33-.24.25-.19h0C338.85,420,353,423.08,366.11,414.59Z" style="fill:#fff"></path><path d="M365,440.74c-1.64.12-3.23.18-4.78.18-19,0-30.95-8.88-35.31-12.8,1.63-1.5,4.15.11,4.15.11l.42-1.56C335,431,347.14,438.13,365,436.72,365,438.06,365,439.41,365,440.74Z" style="fill:#fff"></path><path d="M347.5,454.38h-6c-.91-.77-1.9-1.58-3-2.44a141.15,141.15,0,0,1-21.9-22.15l1.65-.1h0c1.19-.09,2.25-.19,3.16-.31A136.54,136.54,0,0,0,341,448.8C343.6,450.88,345.75,452.73,347.5,454.38Z" style="fill:#fff"></path><path d="M322.56,454.38h-4.74a125.71,125.71,0,0,1-12.1-24.27L310,430A130.8,130.8,0,0,0,322.56,454.38Z" style="fill:#fff"></path><path d="M303.39,454.38H299a121.41,121.41,0,0,1-7.3-24.28l4.09,0A117.58,117.58,0,0,0,303.39,454.38Z" style="fill:#fff"></path><path d="M286,454.38h-4.5a77.68,77.68,0,0,1-6.72-22c1.35-.27,2.68-.52,3.95-.76A74.46,74.46,0,0,0,286,454.38Z" style="fill:#fff"></path><path d="M271.93,454.38h-4.77A54.11,54.11,0,0,1,260,435.44l3.94-.84A51.25,51.25,0,0,0,271.93,454.38Z" style="fill:#fff"></path><path d="M260.73,454.38H259.2s-9-6.11-9.5-10.85a24.52,24.52,0,0,1,0-7.12l1,0C251.1,441,253.34,447.46,260.73,454.38Z" style="fill:#fff"></path></g></g><path d="M363.3,395.39l3.18-2.3s3.21,7.41,3.3,10.18a1.77,1.77,0,0,1-.08.7c-.35.92-1.76,5.14-3.09,9.12-.17.51-.34,1-.5,1.5-.83,2.51-1.57,4.73-1.89,5.68h0l-.05.15-.11.34s.15,1.57.34,4c.14,1.81.29,4.1.41,6.62h0c.08,1.43.13,2.93.18,4.46,0,.27,0,.55,0,.82,0,1.34,0,2.69,0,4,0,.75,0,1.48,0,2.2-.05,1.63-.13,3.19-.27,4.62-.31,3.17-.88,5.69-1.84,6.82H259.2s-9-6.11-9.5-10.85a24.52,24.52,0,0,1,0-7.12l1,0,3.8.21,5.57-1.23,3.94-.84c3.33-.7,7.14-1.5,10.8-2.22,1.35-.27,2.68-.52,3.95-.76l1.37-.26.75-.14c1.83-.33,3.48-.61,4.84-.81a25.39,25.39,0,0,1,3.19-.33l2.85,0,4.09,0h5.72l4.2,0L310,430c2.35-.05,4.61-.13,6.63-.25l1.65-.1h0c1.19-.09,2.25-.19,3.16-.31a11.31,11.31,0,0,0,2.7-.58,1.15,1.15,0,0,0,.49-.31,2.45,2.45,0,0,1,.34-.37c1.63-1.5,4.15.11,4.15.11l.42-1.56,1.32-4.91h0l.06-.22.9-3.32.33-.24.25-.19h0" style="fill:none;stroke:#263238;stroke-linecap:round;stroke-linejoin:round"></path><path d="M342.54,369c5.06-.36,12.72-3.58,19.54,5.54s3.69,26.67,3.69,26.67-13,11.2-34.34,3.28-40.25-26.82-33.69-41.5C297.74,363,331.27,369.79,342.54,369Z" style="fill:#fff;stroke:#263238;stroke-linecap:round;stroke-linejoin:round"></path><path d="M304.59,377.35A26.1,26.1,0,0,0,300,360.28a35.28,35.28,0,0,0-6.84-7.71l0,0s27-31.18,26.21-12a35.07,35.07,0,0,0,13.47,29.06" style="fill:#fff;stroke:#263238;stroke-linecap:round;stroke-linejoin:round"></path><path d="M310.78,353.12s-2.49,5.37-10.81,7.16a35.28,35.28,0,0,0-6.84-7.71Z" style="fill:#263238"></path><path d="M312,352.55a39.38,39.38,0,0,1-24.26,3.9c-7.14-1.1-10.32-24.42-7.36-28.92a19.19,19.19,0,0,0,2.16-7.59c.47-7.29,1.43-20.15,8-23,16.88-7.4,44.1-4.78,45.89,15.47,1.09,12.24-6.18,27.47-18.62,36.57" style="fill:#fff;stroke:#263238;stroke-linecap:round;stroke-linejoin:round"></path><path d="M296.68,312.7a8,8,0,0,1,9.54,4" style="fill:none;stroke:#263238;stroke-linecap:round;stroke-linejoin:round"></path><path d="M287.67,312.34a2.94,2.94,0,0,0-4.17,0" style="fill:none;stroke:#263238;stroke-linecap:round;stroke-linejoin:round"></path><ellipse cx="300.78" cy="323.91" rx="3.17" ry="1.7" transform="translate(-78.54 550.85) rotate(-78.01)" style="fill:#263238"></ellipse><ellipse cx="286.13" cy="321.84" rx="3.17" ry="1.7" transform="translate(-88.13 534.88) rotate(-78.01)" style="fill:#263238"></ellipse><path d="M288.86,323.91s-1.84,3.88-5.36,4.15-.66,6,2.08,7" style="fill:none;stroke:#263238;stroke-linecap:round;stroke-linejoin:round"></path><path d="M286.13,340.89s-.78,3.51,2.08,4.26a4.6,4.6,0,0,0,1.18.14c2.59,0,5.13-1.54,6.72-2.73a16.86,16.86,0,0,0,1.63-1.38c-3.8.84-8.89.18-11.61-.29-1.18-.2-1.91-.37-1.91-.37" style="fill:none;stroke:#263238;stroke-linecap:round;stroke-linejoin:round"></path><path d="M304.59,297.52s-6.93,16.9,10.18,33.58c0,0,2.5,16.49,0,31.63-4,24.28,13.13,22.43,13.13,22.43s-14.11,0-8.58-19.39c3.28-11.47,10.19-25.25,10.19-25.25s17.21-22.42,7-37.59-56.26-17.32-54.62,3.9C281.87,306.83,292,296,304.59,297.52Z" style="fill:#263238"></path><path d="M334.43,323.07s2.47,12.66-3.81,28.68-4.6,25.48,0,25.6,14.26-15.24,20.8-9.15a10.27,10.27,0,0,0-7.56,2.43c-3.89,3.07-11.34,13.26-17.47,11.09s-5.24-8.27-1.79-22.65a58.6,58.6,0,0,0,.13-26.49Z" style="fill:#263238"></path><path d="M323.63,333.43a30.72,30.72,0,0,0,2.59,1.66" style="fill:none;stroke:#fff;stroke-linecap:round;stroke-linejoin:round"></path><path d="M308.73,295.22C308,308,311,322,321,331.29" style="fill:none;stroke:#fff;stroke-linecap:round;stroke-linejoin:round"></path><path d="M338.73,339.44a26.51,26.51,0,0,0,3,1.08" style="fill:none;stroke:#fff;stroke-linecap:round;stroke-linejoin:round"></path><path d="M319.3,312.34c1.73,10,7.44,20.31,16.34,25.54" style="fill:none;stroke:#fff;stroke-linecap:round;stroke-linejoin:round"></path><path d="M296.26,295.41c-10.14.93-22.77,5.33-21.26,17.8" style="fill:none;stroke:#fff;stroke-linecap:round;stroke-linejoin:round"></path><path d="M304,295.22a50.63,50.63,0,0,0-5.08,0" style="fill:none;stroke:#fff;stroke-linecap:round;stroke-linejoin:round"></path><path d="M319.21,350c-.21,9-5.21,18-1.76,28" style="fill:none;stroke:#fff;stroke-linecap:round;stroke-linejoin:round"></path><path d="M319.32,340.52a56.28,56.28,0,0,1,.06,6.23" style="fill:none;stroke:#fff;stroke-linecap:round;stroke-linejoin:round"></path><path d="M326.13,360c-.36,1.66-.76,3.32-1.2,5" style="fill:none;stroke:#fff;stroke-linecap:round;stroke-linejoin:round"></path><path d="M328.71,342.17a135.67,135.67,0,0,1-1.86,14.19" style="fill:none;stroke:#fff;stroke-linecap:round;stroke-linejoin:round"></path><path d="M347.66,364.2a32.6,32.6,0,0,1,6.61,4" style="fill:none;stroke:#fff;stroke-linecap:round;stroke-linejoin:round"></path><path d="M331.79,342.17c-1.16,9.62,4.68,16.54,12.88,20.57" style="fill:none;stroke:#fff;stroke-linecap:round;stroke-linejoin:round"></path><path d="M297.74,341.18a16.86,16.86,0,0,1-1.63,1.38c-5.69-.5-7.9,2.59-7.9,2.59-2.86-.75-2.08-4.26-2.08-4.26C288.85,341.36,293.94,342,297.74,341.18Z" style="fill:#263238"></path><ellipse cx="327.9" cy="331.62" rx="16.21" ry="11.42" transform="translate(-64.6 583.48) rotate(-78.01)" style="fill:#757575;stroke:#263238;stroke-linecap:round;stroke-linejoin:round"></ellipse><path d="M329,321.84s.4-24.55-16.28-31.91a31,31,0,0,1,13.56,4.12c7.45,4.12,11.57,14.83,9.82,31Z" style="fill:#FF571F"></path><g style="clip-path:url(#freepik--clip-path-6--inject-6)"><path d="M329,321.84s.4-24.55-16.28-31.91a31,31,0,0,1,13.56,4.12c7.45,4.12,11.57,14.83,9.82,31Z" style="fill-opacity:0.7000000000000001;opacity:0.30000000000000004"></path></g><path d="M329,321.84s.4-24.55-16.28-31.91a31,31,0,0,1,13.56,4.12c7.45,4.12,11.57,14.83,9.82,31Z" style="fill:none;stroke:#263238;stroke-miterlimit:10"></path><ellipse cx="330.62" cy="332.58" rx="12.38" ry="8.72" transform="translate(-63.38 586.9) rotate(-78.01)" style="fill:#FF571F;stroke:#263238;stroke-miterlimit:10"></ellipse><path d="M338.67,334.49c-1.15,5.4-5.16,9.11-9,8.31s-5.95-5.84-4.8-11.23,5.15-9.11,8.95-8.3S339.81,329.1,338.67,334.49Z" style="fill:#FF571F"></path><g style="clip-path:url(#freepik--clip-path-7--inject-6)"><path d="M338.67,334.49c-1.15,5.4-5.16,9.11-9,8.31s-5.95-5.84-4.8-11.23,5.15-9.11,8.95-8.3S339.81,329.1,338.67,334.49Z" style="fill-opacity:0.7000000000000001;opacity:0.30000000000000004"></path></g><path d="M338.67,334.49c-1.15,5.4-5.16,9.11-9,8.31s-5.95-5.84-4.8-11.23,5.15-9.11,8.95-8.3S339.81,329.1,338.67,334.49Z" style="fill:none;stroke:#263238;stroke-miterlimit:10"></path><path d="M309.7,388.34s3.05-4.19,5.15-4.15,21.36-4.15,27.89-9.1" style="fill:none;stroke:#263238;stroke-linecap:round;stroke-linejoin:round"></path><path d="M300.78,367.57s-2,6.37.67,11.2,5,4.82,4.77,9.57" style="fill:none;stroke:#263238;stroke-linecap:round;stroke-linejoin:round"></path><path d="M337.4,393.09c2-.2,0,13.19,0,13.19" style="fill:none;stroke:#263238;stroke-linecap:round;stroke-linejoin:round"></path><path d="M281.48,396.32s.75-11.15-3.41-15.51" style="fill:none;stroke:#263238;stroke-linecap:round;stroke-linejoin:round"></path><path d="M268.46,387.09s7.24,7,13.07,7.29" style="fill:none;stroke:#263238;stroke-linecap:round;stroke-linejoin:round"></path><path d="M246,368.89A28.51,28.51,0,0,0,243.58,382" style="fill:none;stroke:#263238;stroke-linecap:round;stroke-linejoin:round"></path><path d="M240.16,365s-6.12,1.72-8.74,6.73" style="fill:none;stroke:#263238;stroke-linecap:round;stroke-linejoin:round"></path><path d="M327.9,413.37s-.13,12,1.61,13.3" style="fill:none;stroke:#263238;stroke-linecap:round;stroke-linejoin:round"></path><path d="M329.09,428.23s6.3,3,8,7.58" style="fill:none;stroke:#263238;stroke-linecap:round;stroke-linejoin:round"></path><path d="M295,362.5s-5.08,8,0,21.34" style="fill:none;stroke:#263238;stroke-linecap:round;stroke-linejoin:round"></path><path d="M369.7,404s-7.7,11-20.89,9.4" style="fill:none;stroke:#263238;stroke-linecap:round;stroke-linejoin:round"></path></g><g id="freepik--Device--inject-6"><path d="M208.32,452.38H161.08a3.94,3.94,0,0,1-3.57-2.38L146.2,416.29c-.44-1.32.45-2.38,2-2.38h47.23a3.92,3.92,0,0,1,3.57,2.38L210.29,450C210.73,451.31,209.85,452.38,208.32,452.38Z" style="fill:#fff;stroke:#263238;stroke-linecap:round;stroke-linejoin:round"></path><path d="M206.32,454.38H159.08a3.94,3.94,0,0,1-3.57-2.38L144.2,418.29c-.44-1.32.45-2.38,2-2.38h47.23a3.92,3.92,0,0,1,3.57,2.38L208.29,452C208.73,453.31,207.85,454.38,206.32,454.38Z" style="fill:#FF571F;stroke:#263238;stroke-miterlimit:10"></path><path d="M149.88,440.45h0a.87.87,0,0,0-.67.41L141.4,453a.92.92,0,0,0,.78,1.43H201.9V440.45Z" style="fill:#FF571F"></path><g style="clip-path:url(#freepik--clip-path-8--inject-6)"><path d="M149.88,440.45h0a.87.87,0,0,0-.67.41L141.4,453a.92.92,0,0,0,.78,1.43H201.9V440.45Z" style="opacity:0.2"></path></g><path d="M149.88,440.45h0a.87.87,0,0,0-.67.41L141.4,453a.92.92,0,0,0,.78,1.43H201.9V440.45Z" style="fill:none;stroke:#263238;stroke-miterlimit:10"></path><path d="M206.11,454.38H194.18a.92.92,0,0,1-.78-1.43l7.8-12.08a.93.93,0,0,1,1.66.21L207,453.15A.94.94,0,0,1,206.11,454.38Z" style="fill:#FF571F"></path><g style="clip-path:url(#freepik--clip-path-9--inject-6)"><path d="M206.11,454.38H194.18a.92.92,0,0,1-.78-1.43l7.8-12.08a.93.93,0,0,1,1.66.21L207,453.15A.94.94,0,0,1,206.11,454.38Z" style="opacity:0.5"></path></g><path d="M206.11,454.38H194.18a.92.92,0,0,1-.78-1.43l7.8-12.08a.93.93,0,0,1,1.66.21L207,453.15A.94.94,0,0,1,206.11,454.38Z" style="fill:none;stroke:#263238;stroke-miterlimit:10"></path></g><g id="freepik--Plant--inject-6"><path d="M81.73,430.6s2.21-19.23,9.56-35.91.73-20.24-3.2-16.07-8.25,19.81-8.25,19.81,2-16.38,1.16-25.1c-1.16-12.78-3.15-22.77-9-21.19-6.8,1.82,2.86,26.48.3,52.36,0,0-9-14.26-12.14-26.45s-11.26-6.91-8.44,4,13.72,17,17.94,28.83c0,0-14-13-18.53-7.88-2.53,2.88,3.87,5,6.64,6.29,13.45,6.44,16.9,22.55,16.9,22.55Z" style="fill:#FF571F;stroke:#263238;stroke-linecap:round;stroke-linejoin:round"></path><path d="M81.73,430.6s2.21-19.23,9.56-35.91.73-20.24-3.2-16.07-8.25,19.81-8.25,19.81,2-16.38,1.16-25.1c-1.16-12.78-3.15-22.77-9-21.19-6.8,1.82,2.86,26.48.3,52.36,0,0-9-14.26-12.14-26.45s-11.26-6.91-8.44,4,13.72,17,17.94,28.83c0,0-14-13-18.53-7.88-2.53,2.88,3.87,5,6.64,6.29,13.45,6.44,16.9,22.55,16.9,22.55Z" style="fill-opacity:0.7000000000000001;stroke:#263238;stroke-miterlimit:10;opacity:0.2"></path><path d="M73.56,426.45s1.11-20.12-6.23-36.8-.79-18,3.14-13.81,6.93,25.77,6.93,25.77,3.45-19.35,1.88-32.72-1.46-20.9,4-20.9c7,0,5.39,32.74-.3,52.36,0,0,9-14.26,12.14-26.45s11.26-6.91,8.44,4-13.72,17-17.94,28.83c0,0,14-13,18.53-7.88,2.53,2.88-3.87,5-6.64,6.29-13.45,6.44-16.9,22.55-16.9,22.55Z" style="fill:#FF571F;stroke:#263238;stroke-linecap:round;stroke-linejoin:round"></path><path d="M71.05,388.81c6.23,14.08,6.59,34.6,6.59,34.6s8.2-40.78,6.14-58" style="fill:none;stroke:#263238;stroke-linecap:round;stroke-linejoin:round"></path><path d="M98,380.73s-9.16,19.32-17.54,26.73" style="fill:none;stroke:#263238;stroke-linecap:round;stroke-linejoin:round"></path><path d="M98,401.55s-15.48,9.95-19.28,16.06" style="fill:none;stroke:#263238;stroke-linecap:round;stroke-linejoin:round"></path><path d="M111.87,426.33l-1,6-.22,1.28L107,454.2H50.17l-3.36-19.26-.22-1.25-1.28-7.36a1.72,1.72,0,0,1,1.69-2h63.19A1.71,1.71,0,0,1,111.87,426.33Z" style="fill:#263238"></path><g style="clip-path:url(#freepik--clip-path-10--inject-6)"><g style="opacity:0.5"><path d="M110.83,432.29l-.22,1.28a5.49,5.49,0,0,0-2.06,1.52c-7.1,8.1-13,6-19.69.29-5.79-4.94-8.81-2.16-13.39,2-.8.74-1.64,1.51-2.54,2.29-1.85,1.58-3.38,2.21-4.78,2.21-2.38,0-4.34-1.86-6.72-4.11A57.36,57.36,0,0,0,57.1,434c-3-2.32-7-1-10.29.92l-.22-1.25c3.55-2,7.78-3.21,11.21-.58A52.33,52.33,0,0,1,62.22,437c3.84,3.63,5.76,5.45,10,1.85.89-.76,1.72-1.52,2.51-2.25,4.66-4.29,8.36-7.67,14.92-2.09,7.58,6.46,12.32,6.42,18.07-.16A6.35,6.35,0,0,1,110.83,432.29Z" style="fill:#fff"></path></g></g></g></svg>
